<?xml version="1.0" encoding="UTF-8" standalone="no"?>
<svg
   width="32"
   height="16"
   viewBox="0 0 32 16"
   fill="none"
   version="1.1"
   id="svg1"
   sodipodi:docname="switch_off_dark.svg"
   inkscape:version="1.4.2 (f4327f4, 2025-05-13)"
   xmlns:inkscape="http://www.inkscape.org/namespaces/inkscape"
   xmlns:sodipodi="http://sodipodi.sourceforge.net/DTD/sodipodi-0.dtd"
   xmlns="http://www.w3.org/2000/svg"
   xmlns:svg="http://www.w3.org/2000/svg">
  <defs
     id="defs1" />
  <sodipodi:namedview
     id="namedview1"
     pagecolor="#ffffff"
     bordercolor="#000000"
     borderopacity="0.25"
     inkscape:showpageshadow="2"
     inkscape:pageopacity="0.0"
     inkscape:pagecheckerboard="0"
     inkscape:deskcolor="#d1d1d1"
     showgrid="true"
     inkscape:zoom="16"
     inkscape:cx="-4.90625"
     inkscape:cy="9.90625"
     inkscape:window-width="3840"
     inkscape:window-height="2054"
     inkscape:window-x="-11"
     inkscape:window-y="-11"
     inkscape:window-maximized="1"
     inkscape:current-layer="svg1">
    <inkscape:grid
       id="grid1"
       units="px"
       originx="0"
       originy="0"
       spacingx="1"
       spacingy="1"
       empcolor="#0099e5"
       empopacity="0.30196078"
       color="#0099e5"
       opacity="0.14901961"
       empspacing="5"
       enabled="true"
       visible="true" />
  </sodipodi:namedview>
  <path
     d="M 8,3 C 5.2600098,3 3.0449219,5.2304181 3.0449219,8 c 0,2.769582 2.2150879,5 4.9550781,5 h 16 c 0.01496,1.33e-4 0.02993,0 0.04492,0 C 26.784912,13 29,10.769582 29,8 29,5.2304181 26.784914,3 24.044922,3 24.029932,3 24.01496,2.9998668 24,3 Z"
     style="baseline-shift:baseline;display:inline;overflow:visible;opacity:1;vector-effect:none;fill:#ec3e3e;enable-background:accumulate;stop-color:#000000;stop-opacity:1;fill-opacity:1"
     id="path8" />
  <circle
     style="fill:#ffffff;fill-opacity:1;stroke:#d1d1d1;stroke-width:0.999999;stroke-dasharray:none;stroke-opacity:1"
     id="path6"
     cx="8"
     cy="8"
     r="4.5" />
  <path
     id="path7"
     style="baseline-shift:baseline;display:inline;overflow:visible;opacity:1;vector-effect:none;fill:#616161;fill-opacity:1;stroke:none;stroke-opacity:1;enable-background:accumulate;stop-color:#000000;stop-opacity:1"
     d="m 7.9999999,2 c -3.284934,0 -5.955078,2.6944449 -5.955078,6 0,3.305555 2.670144,6 5.955078,6 H 24 c 0.01496,1.12e-4 0.02993,0 0.04492,0 3.284934,0 5.955078,-2.694445 5.955078,-6 0,-3.3055551 -2.670144,-6 -5.955078,-6 C 24.02993,2 24.01496,1.999888 24,2 Z m 0,1 H 24 c 0.01496,-1.332e-4 0.02993,0 0.04492,0 2.739992,0 4.955078,2.2304181 4.955078,5 0,2.769582 -2.215088,5 -4.955078,5 C 24.02993,13 24.01496,13.000133 24,13 H 7.9999999 c -2.73999,0 -4.955078,-2.230418 -4.955078,-5 0,-2.7695819 2.215088,-5 4.955078,-5 z" />
</svg>
