<?xml version="1.0" encoding="UTF-8" standalone="no"?>
<svg
   width="16"
   height="16"
   viewBox="0 0 16 16"
   fill="none"
   version="1.1"
   id="svg4"
   sodipodi:docname="workspace-python-dark.svg"
   inkscape:version="1.4.2 (f4327f4, 2025-05-13)"
   xml:space="preserve"
   xmlns:inkscape="http://www.inkscape.org/namespaces/inkscape"
   xmlns:sodipodi="http://sodipodi.sourceforge.net/DTD/sodipodi-0.dtd"
   xmlns="http://www.w3.org/2000/svg"
   xmlns:svg="http://www.w3.org/2000/svg"
   xmlns:rdf="http://www.w3.org/1999/02/22-rdf-syntax-ns#"
   xmlns:cc="http://creativecommons.org/ns#"
   xmlns:dc="http://purl.org/dc/elements/1.1/"><metadata
     id="metadata10"><rdf:RDF><cc:Work
         rdf:about=""><dc:format>image/svg+xml</dc:format><dc:type
           rdf:resource="http://purl.org/dc/dcmitype/StillImage" /></cc:Work></rdf:RDF></metadata><defs
     id="defs8" /><sodipodi:namedview
     pagecolor="#ffffff"
     bordercolor="#666666"
     borderopacity="1"
     objecttolerance="10"
     gridtolerance="10"
     guidetolerance="10"
     inkscape:pageopacity="0"
     inkscape:pageshadow="2"
     inkscape:window-width="3840"
     inkscape:window-height="2054"
     id="namedview6"
     showgrid="true"
     inkscape:zoom="41.7193"
     inkscape:cx="8.0178718"
     inkscape:cy="10.678511"
     inkscape:window-x="-11"
     inkscape:window-y="-11"
     inkscape:window-maximized="1"
     inkscape:current-layer="svg4"
     inkscape:showpageshadow="2"
     inkscape:pagecheckerboard="0"
     inkscape:deskcolor="#d1d1d1"><inkscape:grid
       id="grid1"
       units="px"
       originx="0"
       originy="0"
       spacingx="1"
       spacingy="1"
       empcolor="#0099e5"
       empopacity="0.30196078"
       color="#0099e5"
       opacity="0.14901961"
       empspacing="5"
       enabled="true"
       visible="true" /></sodipodi:namedview><path
     style="opacity:1;vector-effect:none;fill:none;fill-opacity:1;fill-rule:nonzero;stroke:#c5c5c5;stroke-width:0.99999994;stroke-linecap:round;stroke-linejoin:miter;stroke-miterlimit:4;stroke-dasharray:none;stroke-dashoffset:19.99370003;stroke-opacity:1;paint-order:fill markers stroke"
     d="m 2.271243,1.5179186 h 11.457514 c 4e-6,0 7e-6,2.9e-6 7e-6,6.6e-6 V 14.482075 c 0,3e-6 -3e-6,6e-6 -7e-6,6e-6 H 2.271243 c -3.6e-6,0 -6.6e-6,-3e-6 -6.6e-6,-6e-6 V 1.5179252 c 0,-3.7e-6 3e-6,-6.6e-6 6.6e-6,-6.6e-6 z"
     id="rect817" /><path
     style="font-weight:bold;font-size:8.4699px;font-family:Arial;-inkscape-font-specification:Arial;letter-spacing:0.494079px;fill:#3771a2;stroke-width:0.696267;stroke-linejoin:round"
     d="M 4.4074838,9.0629263 V 2.9999997 h 1.9644544 q 1.1166372,0 1.4557641,0.090985 0.5210973,0.1364779 0.8726313,0.5955398 0.3515339,0.4549263 0.3515339,1.1786727 0,0.5583186 -0.202649,0.9388024 Q 8.6465696,6.1844837 8.3322569,6.4036754 8.0220799,6.6187315 7.6994958,6.6890383 7.2611123,6.7758878 6.4298379,6.7758878 H 5.6316491 V 9.0629263 Z M 5.6316491,4.0256517 v 1.7204485 h 0.6699823 q 0.7237463,0 0.9677523,-0.095121 Q 7.5133896,5.5558583 7.6498675,5.3532093 7.790481,5.1505603 7.790481,4.8817402 7.790481,4.5508848 7.5961034,4.3358287 7.4017258,4.1207727 7.1039559,4.0670086 6.8847642,4.0256517 6.2230532,4.0256517 Z"
     id="text7"
     aria-label="P" /><path
     style="font-weight:bold;font-size:8.4699px;font-family:Arial;-inkscape-font-specification:Arial;letter-spacing:0.494079px;fill:#ffce3d;stroke-width:0.588763;stroke-linejoin:round"
     d="m 7.7629499,7.642497 h 1.045645 l 0.888274,2.636845 0.8672961,-2.636845 h 1.017668 l -1.31143,3.574078 c -0.186986,0.572818 -0.4370611,1.120224 -0.6802291,1.670554 l -0.958923,0.0063 c 0,0 0.486258,-1.318983 0.544544,-1.526481 z"
     id="text1"
     aria-label="y"
     sodipodi:nodetypes="cccccccccc" /></svg>
