<?xml version="1.0" encoding="UTF-8" standalone="no"?>
<svg
   width="16"
   height="16"
   viewBox="0 0 16 16"
   fill="none"
   version="1.1"
   id="svg4"
   sodipodi:docname="workspace-java-repository-dark.svg"
   inkscape:version="1.4.2 (f4327f4, 2025-05-13)"
   xml:space="preserve"
   xmlns:inkscape="http://www.inkscape.org/namespaces/inkscape"
   xmlns:sodipodi="http://sodipodi.sourceforge.net/DTD/sodipodi-0.dtd"
   xmlns="http://www.w3.org/2000/svg"
   xmlns:svg="http://www.w3.org/2000/svg"
   xmlns:rdf="http://www.w3.org/1999/02/22-rdf-syntax-ns#"
   xmlns:cc="http://creativecommons.org/ns#"
   xmlns:dc="http://purl.org/dc/elements/1.1/"><metadata
     id="metadata10"><rdf:RDF><cc:Work
         rdf:about=""><dc:format>image/svg+xml</dc:format><dc:type
           rdf:resource="http://purl.org/dc/dcmitype/StillImage" /></cc:Work></rdf:RDF></metadata><defs
     id="defs8" /><sodipodi:namedview
     pagecolor="#ffffff"
     bordercolor="#666666"
     borderopacity="1"
     objecttolerance="10"
     gridtolerance="10"
     guidetolerance="10"
     inkscape:pageopacity="0"
     inkscape:pageshadow="2"
     inkscape:window-width="3840"
     inkscape:window-height="2054"
     id="namedview6"
     showgrid="true"
     inkscape:zoom="59"
     inkscape:cx="9.3305085"
     inkscape:cy="7.0932204"
     inkscape:window-x="-11"
     inkscape:window-y="-11"
     inkscape:window-maximized="1"
     inkscape:current-layer="svg4"
     inkscape:showpageshadow="2"
     inkscape:pagecheckerboard="0"
     inkscape:deskcolor="#d1d1d1"><inkscape:grid
       id="grid1"
       units="px"
       originx="0"
       originy="0"
       spacingx="1"
       spacingy="1"
       empcolor="#0099e5"
       empopacity="0.30196078"
       color="#0099e5"
       opacity="0.14901961"
       empspacing="5"
       enabled="true"
       visible="true" /></sodipodi:namedview><path
     d="m 6.4139104,10.369598 1.2277002,-0.16837 q 0.049108,1.178592 0.4419721,1.613549 0.3928641,0.434957 1.0873916,0.434957 0.5121264,0 0.8839437,-0.23151 0.371818,-0.238524 0.512127,-0.638404 0.140308,-0.406895 0.140308,-1.290839 V 3.003397 h 1.360994 v 7.008415 q 0,1.290839 -0.315694,1.999397 -0.308679,0.708558 -0.989176,1.080376 -0.673481,0.371818 -1.5854873,0.371818 -1.3539779,0 -2.0765672,-0.778713 -0.7155739,-0.778712 -0.6875121,-2.315092 z"
     id="text7"
     style="font-size:14.3676px;font-family:Arial;-inkscape-font-specification:Arial;letter-spacing:0.838112px;fill:#f58219;stroke-width:1.18109;stroke-linejoin:round"
     aria-label="J" /><rect
     style="fill:#f58219;fill-opacity:1;stroke-width:0.764106;stroke-linejoin:round"
     id="rect7"
     width="3"
     height="1.4067796"
     x="8"
     y="3" /><g
     style="fill:#fff41c;fill-opacity:1"
     id="g877"
     transform="translate(0.0215558,-0.116234)"><path
       d="m 0.33281831,2.0630498 0.6425487,-0.6132946 c 0.0349787,-0.033386 0.0912972,-0.033385 0.12627499,2e-7 L 6.6179583,6.714916 c 0.034979,0.033386 0.034979,0.08714 2e-7,0.1205257 L 5.9754097,7.4487352 c -0.034978,0.03339 -0.091297,0.03338 -0.126275,0 L 0.33281831,2.1835756 c -0.0349787,-0.033386 -0.0349787,-0.08714 0,-0.1205258 z"
       style="fill:#fff41c;fill-opacity:1;stroke:none;stroke-width:0.828919;stroke-opacity:0"
       id="rect12963-05-8" /><path
       d="M 2.685724,7.6992182 V 6.5824203 c 0,-0.024969 0.020925,-0.045071 0.046916,-0.045071 h 4.099082 c 0.025991,0 0.046916,0.020102 0.046916,0.045071 v 1.1167979 c 0,0.02497 -0.020925,0.04507 -0.046916,0.04507 H 2.7326404 c -0.025991,0 -0.046916,-0.0201 -0.046916,-0.04507 z"
       style="fill:#fff41c;fill-opacity:1;stroke:none;stroke-width:0.595087;stroke-opacity:0"
       id="rect12963-05-50" /><path
       d="M 6.8317223,7.7442892 H 5.6692064 c -0.025991,0 -0.046916,-0.0201 -0.046916,-0.04507 V 3.7613406 c 0,-0.024969 0.020925,-0.045071 0.046916,-0.045071 h 1.1625159 c 0.025991,0 0.046916,0.020102 0.046916,0.045071 v 3.9378776 c 0,0.02497 -0.020925,0.04507 -0.046916,0.045071 z"
       style="fill:#fff41c;fill-opacity:1;stroke:none;stroke-width:0.595087;stroke-opacity:0"
       id="rect12963-05-50-8" /><path
       d="M 1.2094328,5.1641874 H 0.04691696 C 0.02092577,5.1641874 5.6568186e-7,5.1440851 5.6568186e-7,5.1191161 v -3.937879 c 0,-0.02497 0.0209252043181,-0.045071 0.0469163943181,-0.045071 H 1.2094328 c 0.025991,0 0.046916,0.020102 0.046916,0.045071 v 3.937879 c 0,0.024969 -0.020925,0.045071 -0.046916,0.045071 z"
       style="fill:#fff41c;fill-opacity:1;stroke:none;stroke-width:0.595087;stroke-opacity:0"
       id="rect12963-05-50-8-5" /><path
       d="M 5.6568186e-7,2.2980363 V 1.1812369 c 0,-0.02497 0.0209252043181,-0.045071 0.0469163943181,-0.045071 H 4.1459986 c 0.025991,0 0.046916,0.020102 0.046916,0.045071 v 1.1167994 c 0,0.024969 -0.020925,0.045071 -0.046916,0.045071 H 0.04691696 C 0.02092577,2.3431076 5.6568186e-7,2.3230053 5.6568186e-7,2.2980363 Z"
       style="fill:#fff41c;fill-opacity:1;stroke:none;stroke-width:0.595087;stroke-opacity:0"
       id="rect12963-05-50-1" /></g><path
     id="rect12963"
     style="fill:#c5c5c5;fill-opacity:1;stroke:none;stroke-width:1.21761;stroke-opacity:0"
     d="m 13.375843,1.0000002 h 0.686923 c 0.08656,0 0.156251,0.069688 0.156251,0.1562512 V 14.807912 c 0,0.08656 -0.06969,0.156251 -0.156251,0.156251 h -0.686923 c -0.08656,0 -0.156251,-0.06969 -0.156251,-0.156251 V 1.1562514 c 0,-0.086563 0.06969,-0.1562512 0.156251,-0.1562512 z" /><path
     id="rect12963-0"
     style="fill:#c5c5c5;fill-opacity:1;stroke:none;stroke-width:1.01131;stroke-opacity:0"
     d="m 1.8692761,10.609205 h 0.7838468 c 0.059715,0 0.1077894,0.02173 0.1077894,0.04873 v 4.257496 c 0,0.027 -0.048074,0.04873 -0.1077894,0.04873 H 1.8692761 c -0.059715,0 -0.1077893,-0.02173 -0.1077893,-0.04873 v -4.257497 c 0,-0.027 0.048074,-0.04873 0.1077893,-0.04873 z" /><rect
     rx="0.090976112"
     style="fill:#c5c5c5;fill-opacity:1;stroke:none;stroke-width:0.929094;stroke-opacity:0"
     id="rect12963-05"
     width="0.99942553"
     height="4.3885083"
     x="-1.9994254"
     y="9.830513"
     ry="0.090976112"
     transform="rotate(-90)" /><path
     id="rect12963-05-5"
     style="fill:#c5c5c5;fill-opacity:1;stroke:none;stroke-width:1.15005;stroke-opacity:0"
     d="m 1.7614868,14.824771 v -0.72064 c 0,-0.07722 0.062169,-0.139393 0.1393928,-0.139393 H 14.079625 c 0.07722,0 0.139392,0.06217 0.139392,0.139393 v 0.72064 c 0,0.07722 -0.06217,0.139392 -0.139392,0.139392 H 1.9008796 c -0.077224,0 -0.1393928,-0.06217 -0.1393928,-0.139392 z" /></svg>
