<?xml version="1.0" encoding="UTF-8" standalone="no"?>
<svg
   width="16"
   height="16"
   viewBox="0 0 16 16"
   fill="none"
   version="1.1"
   id="svg4"
   sodipodi:docname="workspace-assembly-repository-dark.svg"
   inkscape:version="1.4.2 (f4327f4, 2025-05-13)"
   xml:space="preserve"
   xmlns:inkscape="http://www.inkscape.org/namespaces/inkscape"
   xmlns:sodipodi="http://sodipodi.sourceforge.net/DTD/sodipodi-0.dtd"
   xmlns="http://www.w3.org/2000/svg"
   xmlns:svg="http://www.w3.org/2000/svg"
   xmlns:rdf="http://www.w3.org/1999/02/22-rdf-syntax-ns#"
   xmlns:cc="http://creativecommons.org/ns#"
   xmlns:dc="http://purl.org/dc/elements/1.1/"><metadata
     id="metadata10"><rdf:RDF><cc:Work
         rdf:about=""><dc:format>image/svg+xml</dc:format><dc:type
           rdf:resource="http://purl.org/dc/dcmitype/StillImage" /></cc:Work></rdf:RDF></metadata><defs
     id="defs8" /><sodipodi:namedview
     pagecolor="#ffffff"
     bordercolor="#666666"
     borderopacity="1"
     objecttolerance="10"
     gridtolerance="10"
     guidetolerance="10"
     inkscape:pageopacity="0"
     inkscape:pageshadow="2"
     inkscape:window-width="3840"
     inkscape:window-height="2054"
     id="namedview6"
     showgrid="true"
     inkscape:zoom="59"
     inkscape:cx="9.3474576"
     inkscape:cy="7.0932203"
     inkscape:window-x="-11"
     inkscape:window-y="-11"
     inkscape:window-maximized="1"
     inkscape:current-layer="svg4"
     inkscape:showpageshadow="2"
     inkscape:pagecheckerboard="0"
     inkscape:deskcolor="#d1d1d1"><inkscape:grid
       id="grid1"
       units="px"
       originx="0"
       originy="0"
       spacingx="1"
       spacingy="1"
       empcolor="#0099e5"
       empopacity="0.30196078"
       color="#0099e5"
       opacity="0.14901961"
       empspacing="5"
       enabled="true"
       visible="true" /></sodipodi:namedview><path
     style="font-weight:bold;font-size:6.13534px;font-family:Arial;-inkscape-font-specification:Arial;letter-spacing:0.357896px;fill:#f2dc0b;fill-opacity:1;stroke-width:0.504356;stroke-linejoin:round"
     d="M 12.297137,7.3918004 H 11.332498 L 10.94904,6.3942085 H 9.1935146 L 8.8310262,7.3918004 H 7.890354 L 9.6009396,2.9999993 H 10.538619 Z M 10.664441,5.6542529 10.059295,4.0245531 9.4661299,5.6542529 Z"
     id="text7"
     aria-label="A" /><path
     style="font-weight:bold;font-size:6.13534px;font-family:Arial;-inkscape-font-specification:Arial;letter-spacing:0.357896px;fill:#f2dc0b;stroke-width:0.504356;stroke-linejoin:round;fill-opacity:1"
     d="m 3.4290402,11.572997 0.8627822,-0.08388 q 0.07789,0.434387 0.314556,0.6381 0.2396618,0.203712 0.6440909,0.203712 0.4283954,0 0.6440909,-0.179746 0.2186914,-0.182742 0.2186914,-0.4254 0,-0.15578 -0.092869,-0.263628 Q 5.9305095,11.35131 5.7028308,11.270424 5.5470507,11.2165 4.992833,11.078694 4.2798393,10.901944 3.9922453,10.644308 3.5878161,10.281819 3.5878161,9.760555 q 0,-0.3355264 0.1887336,-0.6261163 0.1917294,-0.2935856 0.5482262,-0.44637 0.3594926,-0.1527843 0.865778,-0.1527843 0.826833,0 1.2432452,0.3624884 0.419408,0.3624883 0.4403784,0.9676342 L 5.9874291,9.904352 Q 5.9305095,9.5658298 5.7417759,9.419037 5.556038,9.2692484 5.1815666,9.2692484 q -0.3864545,0 -0.6051459,0.1587759 -0.1408012,0.1018563 -0.1408012,0.2726152 0,0.1557802 0.1318139,0.2666237 0.1677632,0.1408008 0.8148499,0.2935858 0.6470867,0.152784 0.9556511,0.317552 0.3115603,0.161771 0.485315,0.44637 0.1767505,0.281602 0.1767505,0.698014 0,0.377468 -0.209704,0.707002 -0.209704,0.329535 -0.5931627,0.491307 -0.3834588,0.158776 -0.9556512,0.158776 -0.8328245,0 -1.2791944,-0.383459 -0.44637,-0.386454 -0.5332474,-1.123414 z"
     id="text1"
     aria-label="S" /><path
     style="font-weight:bold;font-size:6.13534px;font-family:Arial;-inkscape-font-specification:Arial;letter-spacing:0.357896px;fill:#f2dc0b;stroke-width:0.504356;stroke-linejoin:round;fill-opacity:1"
     d="M 8.0000002,13.00198 V 8.6101787 H 9.327127 L 10.124002,11.60595 10.91189,8.6101787 h 1.330123 V 13.00198 H 11.418176 V 9.5448594 L 10.546406,13.00198 H 9.6926111 L 8.8238373,9.5448594 V 13.00198 Z"
     id="text2"
     aria-label="M" /><g
     style="fill:#fff41c;fill-opacity:1"
     id="g877"
     transform="translate(0.0567762,-0.0983157)"><path
       d="m 0.33281831,2.0630498 0.6425487,-0.6132946 c 0.0349787,-0.033386 0.0912972,-0.033385 0.12627499,2e-7 L 6.6179583,6.714916 c 0.034979,0.033386 0.034979,0.08714 2e-7,0.1205257 L 5.9754097,7.4487352 c -0.034978,0.03339 -0.091297,0.03338 -0.126275,0 L 0.33281831,2.1835756 c -0.0349787,-0.033386 -0.0349787,-0.08714 0,-0.1205258 z"
       style="fill:#fff41c;fill-opacity:1;stroke:none;stroke-width:0.828919;stroke-opacity:0"
       id="rect12963-05-8" /><path
       d="M 2.685724,7.6992182 V 6.5824203 c 0,-0.024969 0.020925,-0.045071 0.046916,-0.045071 h 4.099082 c 0.025991,0 0.046916,0.020102 0.046916,0.045071 v 1.1167979 c 0,0.02497 -0.020925,0.04507 -0.046916,0.04507 H 2.7326404 c -0.025991,0 -0.046916,-0.0201 -0.046916,-0.04507 z"
       style="fill:#fff41c;fill-opacity:1;stroke:none;stroke-width:0.595087;stroke-opacity:0"
       id="rect12963-05-50" /><path
       d="M 6.8317223,7.7442892 H 5.6692064 c -0.025991,0 -0.046916,-0.0201 -0.046916,-0.04507 V 3.7613406 c 0,-0.024969 0.020925,-0.045071 0.046916,-0.045071 h 1.1625159 c 0.025991,0 0.046916,0.020102 0.046916,0.045071 v 3.9378776 c 0,0.02497 -0.020925,0.04507 -0.046916,0.045071 z"
       style="fill:#fff41c;fill-opacity:1;stroke:none;stroke-width:0.595087;stroke-opacity:0"
       id="rect12963-05-50-8" /><path
       d="M 1.2094328,5.1641874 H 0.04691696 C 0.02092577,5.1641874 5.6568186e-7,5.1440851 5.6568186e-7,5.1191161 v -3.937879 c 0,-0.02497 0.0209252043181,-0.045071 0.0469163943181,-0.045071 H 1.2094328 c 0.025991,0 0.046916,0.020102 0.046916,0.045071 v 3.937879 c 0,0.024969 -0.020925,0.045071 -0.046916,0.045071 z"
       style="fill:#fff41c;fill-opacity:1;stroke:none;stroke-width:0.595087;stroke-opacity:0"
       id="rect12963-05-50-8-5" /><path
       d="M 5.6568186e-7,2.2980363 V 1.1812369 c 0,-0.02497 0.0209252043181,-0.045071 0.0469163943181,-0.045071 H 4.1459986 c 0.025991,0 0.046916,0.020102 0.046916,0.045071 v 1.1167994 c 0,0.024969 -0.020925,0.045071 -0.046916,0.045071 H 0.04691696 C 0.02092577,2.3431076 5.6568186e-7,2.3230053 5.6568186e-7,2.2980363 Z"
       style="fill:#fff41c;fill-opacity:1;stroke:none;stroke-width:0.595087;stroke-opacity:0"
       id="rect12963-05-50-1" /></g><path
     id="rect12963"
     style="fill:#c5c5c5;fill-opacity:1;stroke:none;stroke-width:1.21761;stroke-opacity:0"
     d="m 13.41107,1.0179185 h 0.686923 c 0.08656,0 0.156251,0.069688 0.156251,0.1562512 V 14.82583 c 0,0.08656 -0.06969,0.156251 -0.156251,0.156251 H 13.41107 c -0.08656,0 -0.156251,-0.06969 -0.156251,-0.156251 V 1.1741697 c 0,-0.086563 0.06969,-0.1562512 0.156251,-0.1562512 z" /><path
     id="rect12963-0"
     style="fill:#c5c5c5;fill-opacity:1;stroke:none;stroke-width:1.01131;stroke-opacity:0"
     d="m 1.9044943,10.627123 h 0.7838468 c 0.059715,0 0.1077894,0.02173 0.1077894,0.04873 v 4.257496 c 0,0.027 -0.048074,0.04873 -0.1077894,0.04873 H 1.9044943 c -0.059715,0 -0.1077893,-0.02173 -0.1077893,-0.04873 v -4.257497 c 0,-0.027 0.048074,-0.04873 0.1077893,-0.04873 z" /><rect
     rx="0.090976112"
     style="fill:#c5c5c5;fill-opacity:1;stroke:none;stroke-width:0.929094;stroke-opacity:0"
     id="rect12963-05"
     width="0.99942553"
     height="4.3885083"
     x="-2.0173438"
     y="9.8657532"
     ry="0.090976112"
     transform="rotate(-90)" /><path
     id="rect12963-05-5"
     style="fill:#c5c5c5;fill-opacity:1;stroke:none;stroke-width:1.15005;stroke-opacity:0"
     d="m 1.796705,14.842689 v -0.72064 c 0,-0.07722 0.062169,-0.139393 0.1393928,-0.139393 H 14.114852 c 0.07722,0 0.139392,0.06217 0.139392,0.139393 v 0.72064 c 0,0.07722 -0.06217,0.139392 -0.139392,0.139392 H 1.9360978 c -0.077224,0 -0.1393928,-0.06217 -0.1393928,-0.139392 z" /></svg>
