<?xml version="1.0" encoding="UTF-8" standalone="no"?>
<svg
   width="16"
   height="16"
   viewBox="0 0 16 16"
   fill="none"
   version="1.1"
   id="svg4"
   sodipodi:docname="workspace-assembly-dark.svg"
   inkscape:version="1.4.2 (f4327f4, 2025-05-13)"
   xml:space="preserve"
   xmlns:inkscape="http://www.inkscape.org/namespaces/inkscape"
   xmlns:sodipodi="http://sodipodi.sourceforge.net/DTD/sodipodi-0.dtd"
   xmlns="http://www.w3.org/2000/svg"
   xmlns:svg="http://www.w3.org/2000/svg"
   xmlns:rdf="http://www.w3.org/1999/02/22-rdf-syntax-ns#"
   xmlns:cc="http://creativecommons.org/ns#"
   xmlns:dc="http://purl.org/dc/elements/1.1/"><metadata
     id="metadata10"><rdf:RDF><cc:Work
         rdf:about=""><dc:format>image/svg+xml</dc:format><dc:type
           rdf:resource="http://purl.org/dc/dcmitype/StillImage" /></cc:Work></rdf:RDF></metadata><defs
     id="defs8" /><sodipodi:namedview
     pagecolor="#ffffff"
     bordercolor="#666666"
     borderopacity="1"
     objecttolerance="10"
     gridtolerance="10"
     guidetolerance="10"
     inkscape:pageopacity="0"
     inkscape:pageshadow="2"
     inkscape:window-width="3840"
     inkscape:window-height="2054"
     id="namedview6"
     showgrid="true"
     inkscape:zoom="59"
     inkscape:cx="9.3474576"
     inkscape:cy="7.0932203"
     inkscape:window-x="-11"
     inkscape:window-y="-11"
     inkscape:window-maximized="1"
     inkscape:current-layer="svg4"
     inkscape:showpageshadow="2"
     inkscape:pagecheckerboard="0"
     inkscape:deskcolor="#d1d1d1"><inkscape:grid
       id="grid1"
       units="px"
       originx="0"
       originy="0"
       spacingx="1"
       spacingy="1"
       empcolor="#0099e5"
       empopacity="0.30196078"
       color="#0099e5"
       opacity="0.14901961"
       empspacing="5"
       enabled="true"
       visible="true" /></sodipodi:namedview><path
     style="opacity:1;vector-effect:none;fill:none;fill-opacity:1;fill-rule:nonzero;stroke:#c5c5c5;stroke-width:0.99999994;stroke-linecap:round;stroke-linejoin:miter;stroke-miterlimit:4;stroke-dasharray:none;stroke-dashoffset:19.99370003;stroke-opacity:1;paint-order:fill markers stroke"
     d="m 2.271243,1.5179186 h 11.457514 c 4e-6,0 7e-6,2.9e-6 7e-6,6.6e-6 V 14.482075 c 0,3e-6 -3e-6,6e-6 -7e-6,6e-6 H 2.271243 c -3.6e-6,0 -6.6e-6,-3e-6 -6.6e-6,-6e-6 V 1.5179252 c 0,-3.7e-6 3e-6,-6.6e-6 6.6e-6,-6.6e-6 z"
     id="rect817" /><path
     style="font-weight:bold;font-size:6.13534px;font-family:Arial;-inkscape-font-specification:Arial;letter-spacing:0.357896px;fill:#f2dc0b;stroke-width:0.504356;stroke-linejoin:round;fill-opacity:1"
     d="M 7.81356,7.3918004 H 6.8489216 L 6.4654628,6.3942085 H 4.7099406 L 4.3474523,7.3918004 H 3.40678 L 5.1173656,2.9999993 H 6.0550421 Z M 6.1808645,5.6542529 5.5757186,4.0245531 4.9825559,5.6542529 Z"
     id="text7"
     aria-label="A" /><path
     style="font-weight:bold;font-size:6.13534px;font-family:Arial;-inkscape-font-specification:Arial;letter-spacing:0.357896px;fill:#f2dc0b;stroke-width:0.504356;stroke-linejoin:round;fill-opacity:1"
     d="m 3.4290402,11.572997 0.8627822,-0.08388 q 0.07789,0.434387 0.314556,0.6381 0.2396618,0.203712 0.6440909,0.203712 0.4283954,0 0.6440909,-0.179746 0.2186914,-0.182742 0.2186914,-0.4254 0,-0.15578 -0.092869,-0.263628 Q 5.9305095,11.35131 5.7028308,11.270424 5.5470507,11.2165 4.992833,11.078694 4.2798393,10.901944 3.9922453,10.644308 3.5878161,10.281819 3.5878161,9.760555 q 0,-0.3355264 0.1887336,-0.6261163 0.1917294,-0.2935856 0.5482262,-0.44637 0.3594926,-0.1527843 0.865778,-0.1527843 0.826833,0 1.2432452,0.3624884 0.419408,0.3624883 0.4403784,0.9676342 L 5.9874291,9.904352 Q 5.9305095,9.5658298 5.7417759,9.419037 5.556038,9.2692484 5.1815666,9.2692484 q -0.3864545,0 -0.6051459,0.1587759 -0.1408012,0.1018563 -0.1408012,0.2726152 0,0.1557802 0.1318139,0.2666237 0.1677632,0.1408008 0.8148499,0.2935858 0.6470867,0.152784 0.9556511,0.317552 0.3115603,0.161771 0.485315,0.44637 0.1767505,0.281602 0.1767505,0.698014 0,0.377468 -0.209704,0.707002 -0.209704,0.329535 -0.5931627,0.491307 -0.3834588,0.158776 -0.9556512,0.158776 -0.8328245,0 -1.2791944,-0.383459 -0.44637,-0.386454 -0.5332474,-1.123414 z"
     id="text1"
     aria-label="S" /><path
     style="font-weight:bold;font-size:6.13534px;font-family:Arial;-inkscape-font-specification:Arial;letter-spacing:0.357896px;fill:#f2dc0b;stroke-width:0.504356;stroke-linejoin:round;fill-opacity:1"
     d="M 8.0000002,13.00198 V 8.6101787 H 9.327127 L 10.124002,11.60595 10.91189,8.6101787 h 1.330123 V 13.00198 H 11.418176 V 9.5448594 L 10.546406,13.00198 H 9.6926111 L 8.8238373,9.5448594 V 13.00198 Z"
     id="text2"
     aria-label="M" /></svg>
